<?xml version="1.0" encoding="utf-8"?>
<!-- Generator: Adobe Illustrator 25.0.0, SVG Export Plug-In . SVG Version: 6.00 Build 0)  -->
<svg version="1.1" id="shipContent" xmlns="http://www.w3.org/2000/svg" xmlns:xlink="http://www.w3.org/1999/xlink" x="0px"
	 y="0px" viewBox="0 0 2732 2048" style="enable-background:new 0 0 2732 2048;" xml:space="preserve">
<g id="stars_x26_sky">
	
		<ellipse id="skyBackground" style="fill:#040A3F;stroke:#000000;stroke-linecap:round;stroke-miterlimit:10;" cx="1379.8" cy="1048.7" rx="976.2" ry="983.8"/>
	
		<ellipse id="starEight" style="fill:#FCEE21;stroke:#000000;stroke-linecap:round;stroke-miterlimit:10;" cx="2135.2" cy="1049.1" rx="10.9" ry="11"/>
	
		<ellipse id="starSeven" style="fill:#FCEE21;stroke:#000000;stroke-linecap:round;stroke-miterlimit:10;" cx="1754.3" cy="251.5" rx="19.5" ry="19.7"/>
	
		<ellipse id="starSix" style="fill:#FCEE21;stroke:#000000;stroke-linecap:round;stroke-miterlimit:10;" cx="810.9" cy="1660.1" rx="4" ry="4"/>
	
		<ellipse id="starFive" style="fill:#FCEE21;stroke:#000000;stroke-linecap:round;stroke-miterlimit:10;" cx="917.2" cy="1162.4" rx="10.3" ry="10.4"/>
	
		<ellipse id="starFour" style="fill:#FCEE21;stroke:#000000;stroke-linecap:round;stroke-miterlimit:10;" cx="795.7" cy="594" rx="15.5" ry="15.6"/>
	
		<ellipse id="starThree" style="fill:#FCEE21;stroke:#000000;stroke-linecap:round;stroke-miterlimit:10;" cx="1754.7" cy="2207.6" rx="5.2" ry="5.2"/>
	
		<ellipse id="starTwo" style="fill:#FCEE21;stroke:#000000;stroke-linecap:round;stroke-miterlimit:10;" cx="1860.3" cy="-707.9" rx="35.6" ry="35.9"/>
	
		<ellipse id="starOne" style="fill:#FCEE21;stroke:#000000;stroke-linecap:round;stroke-miterlimit:10;" cx="1008.8" cy="-305.4" rx="9.8" ry="9.8"/>
	
		<ellipse id="starNine" style="fill:#FCEE21;stroke:#000000;stroke-linecap:round;stroke-miterlimit:10;" cx="1670.4" cy="-1173.5" rx="15.5" ry="15.6"/>
	
		<ellipse id="starTen" style="fill:#FCEE21;stroke:#000000;stroke-linecap:round;stroke-miterlimit:10;" cx="1156.4" cy="-1352.5" rx="15.5" ry="15.6"/>
	
		<ellipse id="starEleven" style="fill:#FCEE21;stroke:#000000;stroke-linecap:round;stroke-miterlimit:10;" cx="1140.7" cy="2877.9" rx="15.5" ry="15.6"/>
</g>
<path id="bigStar" style="fill:#FCEE21;stroke:#000000;stroke-linecap:round;stroke-miterlimit:10;" d="M1384.9,54.4
	c3.4-20.4,6.9-37.4,10.3-57.8c4.2,20.8,5,37,9.2,57.8c5.4-5,13-5.4,18.4-10.4c-2.3,5.8-4.6,10.4-6.9,16.2c11.1,0,21,1.2,32.1,1.2
	c-9.9,3.1-25.6,8.5-35.6,11.6c2.3,2.3,6.9,3.5,9.2,5.8c-3.4-0.4-10.3,0.4-13.8,0c-3.8,26.6-7.7,54.4-11.5,81
	c-5.7-26.2-8-54.8-13.8-81c-3.1,1.2-10.7,0-13.8,1.2c1.5-3.1,7.7-3.9,9.2-6.9c-11.9-1.5-23.7-3.1-35.6-4.6
	c9.6-2.3,19.1-4.6,28.7-6.9c-2.3-4.2-3.4-13.1-5.7-17.4C1370.4,47.5,1379.9,50.9,1384.9,54.4z"/>
<path id="redFire" style="fill:#ED1C24;stroke:#000000;stroke-miterlimit:10;" d="M1317,1405.4c-9.2,16.1-25.2,49.1-26.4,93.4
	c-1.5,54.7,20.4,94.7,30.3,110.5c-4.1-7.5-18.8-36.1-7.1-64.8c5-12.1,15.3-25.9,20.6-24.1c1.7,0.6,5.6,3.8,0,56.5
	c-5,47.3-8.4,47.6-8.4,68c0,13.3,0.4,41.7,15.4,73.1c12.2,25.5,29.1,42.6,41.2,52.7c-9.5-11.4-32.1-41.8-25.1-74.3
	c1-4.6,3.6-16.8,9.7-17.8c9.5-1.5,22.5,25.6,29,45.7c9.7,30.6,7,53.8,7.1,68c0.1,27.5,9.2,71.9,59.9,122.2
	c-6.7-10.2-15.2-33.9-18.7-59.9c-2.8-20.8-0.1-38,2.6-48.9c-4.1-9.9,0-20.9,8.4-25.4c9.7-5.2,23.4-0.8,28.3,10.8
	c1.6-10.6,2.5-26.1-2.6-43.2c-6-20.3-14.5-23.1-18-40.7c-5.2-25.6,5.9-54.8,16.7-55.9c3.2-0.3,8.1,1.7,14.8,12.7
	c0.2-11.7-0.2-24-1.3-36.8c-4.2-48.4-17.7-90-33.2-123.6c-4.5-9.7,8.8-17.8,15.5-9.5c0.1,0.1,0.2,0.2,0.3,0.3
	c12.4,15.5,14.8,29.9,14.8,29.9s13.2-44,0-85.1c-4.6-14.5-13.6-30.8-20-33.7"/>
<path id="orangeFire" style="fill:#F7931E;stroke:#000000;stroke-miterlimit:10;" d="M1354.9,1405.9c-13,19.8-31.5,54.3-35.3,100.4
	c-2.9,35.8,5.9,68.4,5.9,68.4s-2.7-49.5,5.2-51.7c6.8-1.9,26,29.9,24.2,63.1c-1.3,24.2-12.8,29.8-13.1,56.3
	c-0.3,26.6,13.1,46.4,13.1,46.4s-7.9-34.7,3.3-44.1c5.4-4.5,14.4-2.3,20.2,2.3c12.2,9.4,10.9,29.1,13.7,52.5c0,0,5.9,48.8,34.6,98.1
	c7.6,13,20.4,31.8,41.8,50.2c-43.4-30.4-72.5-219.9-24.2-189.4c9.2,5.8,14.5,16.9,15.7,30.4c1,11.6-6.5,28.6-7.8,30.4
	c18.8-9.2,25.4-32.5,27.4-38c4.6-12.6,8.7-30.9,2.6-61.6c-2.9-14.6-7.8-33.7-8.8-38c-0.6-2.5-1.3-4.9-1.8-7.1
	c-1.6-6.1,4.3-11.2,8.8-7.6c6.3,5.1,11,15.4,11,15.4s2-16-7.2-56.3c-2.1-9.1-8.1-32.4-12.4-46.4c-5.8-18.7-9.9-49.4-34.1-73.8"/>
<path id="yellowFire" style="fill:#FFFF00;stroke:#000000;stroke-miterlimit:10;" d="M1364.4,1405.9c-7.3,15.9-18.3,44.5-22.9,84
	c-6.7,57.6,4.4,103.6,9.7,122.2c-1.8-29.7-2.9-64,2.1-65.9c3.2-1.2,7.9,11.7,9.7,17c20.5,58.2,15.3,141.4,15.3,141.4
	c-2.9,45.7,0.3,113.6,29.2,206.2c-9.5-54-10.7-98.7-9.7-130.7c0.6-20.9,3.4-78.1,9.7-78.6c4.1-0.3,11.5,23,8.3,42.5
	c-1.4,8.6-3.5,17-3.5,17s4.8-6.6,7.6-12.8c6.9-14.9,7.6-32.7,6.3-45.7c-5-49.3-9.9-97.9-2.8-103.1c4.6-3.4,15.7,10.6,18.8,26.6
	c2.7,14.1-1.4,27.3-0.7,27.6c1.1,0.5,8.8-28.8,11.8-43.6c5.4-26.7,9.4-93.6-25.7-204.1"/>
<g id="spaceship">
	<g>
		<g>
			<path style="fill:#999999;stroke:#000000;stroke-miterlimit:10;" d="M1573.3,1111.1c15.6,16.8,44.8,47.5,62.9,83.5
				c12.1,23.9,24.9,56.6,36.5,130.1c13.7,87.4,17.9,183.2,8.5,184.6c-6.4,0.9-11.1-43.5-43.3-106.3c-16.4-32.1-38.5-61.9-48.3-75.7
				c-13.5-19.1-28.4-35.6-37.5-46.9"/>
			<path style="fill:#999999;stroke:#000000;stroke-linecap:round;stroke-miterlimit:10;" d="M1545.9,1316.7
				c25.3-141.9,33.8-261.4,36.5-348.7c3-100.1,4.6-164.4-11-252.6c-22-124.3-64-216.9-88.2-264.5c-32.3-63.5-66.9-113.5-95-149.7"/>
			<path style="fill:#CCCCCC;stroke:#000000;stroke-miterlimit:10;" d="M1204.3,1104.3c-15.6,16.8-46.5,49.5-64.7,85.5
				c-12.1,23.9-24.9,56.6-36.5,130.1c-13.7,87.4-17.9,183.2-8.5,184.6c6.4,0.9,11.1-43.5,43.3-106.3c16.4-32.1,38.5-61.9,48.3-75.7
				c13.5-19.1,28.4-35.6,37.5-46.9"/>
			<path style="fill:#CCCCCC;stroke:#000000;stroke-linecap:round;stroke-miterlimit:10;" d="M1230.6,1317
				c-9.8-54.5-19.1-126.7-26.7-212.3c-2.5-27.7-6.6-75.6-8.1-136.5c-2.3-95.2-4.5-164.6,11-252.6c22-124.3,64-216.9,88.2-264.5
				c32.3-63.5,65.2-113.5,93.3-149.7"/>
			<polygon style="fill:#666666;stroke:#000000;stroke-miterlimit:10;" points="1526.6,1375.6 1245.9,1375.6 1230.6,1317 
				1545.3,1317 			"/>
			<polygon style="fill:#333333;stroke:#000000;stroke-miterlimit:10;" points="1505.4,1375.6 1262,1375.6 1297.6,1426.7 
				1472.4,1426.7 			"/>
			<polygon style="fill:#B3B3B3;stroke:#000000;stroke-linecap:round;stroke-miterlimit:10;" points="1388.4,214.6 1231.4,1317 
				1545.3,1317 			"/>
			<ellipse style="stroke:#000000;stroke-miterlimit:10;" cx="1282.4" cy="800.4" rx="1.9" ry="2.1"/>
			<ellipse style="stroke:#000000;stroke-miterlimit:10;" cx="1231.5" cy="799.6" rx="1.9" ry="2.1"/>
			<ellipse style="stroke:#000000;stroke-miterlimit:10;" cx="1334.1" cy="803.1" rx="1.9" ry="2.1"/>
			<ellipse style="stroke:#000000;stroke-miterlimit:10;" cx="1385.8" cy="803.1" rx="1.9" ry="2.1"/>
			<ellipse style="stroke:#000000;stroke-miterlimit:10;" cx="1435.8" cy="802.2" rx="1.9" ry="2.1"/>
			<ellipse style="stroke:#000000;stroke-miterlimit:10;" cx="1488.4" cy="802.2" rx="1.9" ry="2.1"/>
			<ellipse style="stroke:#000000;stroke-miterlimit:10;" cx="1543.2" cy="803.4" rx="1.9" ry="2.1"/>
			<ellipse style="stroke:#000000;stroke-miterlimit:10;" cx="1579.1" cy="803.5" rx="1.9" ry="2.1"/>
			<ellipse style="stroke:#000000;stroke-miterlimit:10;" cx="1198.5" cy="798.7" rx="1.9" ry="2.1"/>
			<ellipse style="stroke:#000000;stroke-miterlimit:10;" cx="1280.3" cy="940" rx="1.9" ry="2.1"/>
			<ellipse style="stroke:#000000;stroke-miterlimit:10;" cx="1231.1" cy="938.3" rx="1.9" ry="2.1"/>
			<ellipse style="stroke:#000000;stroke-miterlimit:10;" cx="1333.7" cy="941.8" rx="1.9" ry="2.1"/>
			<ellipse style="stroke:#000000;stroke-miterlimit:10;" cx="1385.4" cy="941.8" rx="1.9" ry="2.1"/>
			<ellipse style="stroke:#000000;stroke-miterlimit:10;" cx="1435.5" cy="940.9" rx="1.9" ry="2.1"/>
			<ellipse style="stroke:#000000;stroke-miterlimit:10;" cx="1488.1" cy="940.9" rx="1.9" ry="2.1"/>
			<ellipse style="stroke:#000000;stroke-miterlimit:10;" cx="1542.8" cy="942.1" rx="1.9" ry="2.1"/>
			<ellipse style="stroke:#000000;stroke-miterlimit:10;" cx="1578.8" cy="942.2" rx="1.9" ry="2.1"/>
			<ellipse style="stroke:#000000;stroke-miterlimit:10;" cx="1198.1" cy="937.4" rx="1.9" ry="2.1"/>
			<ellipse style="stroke:#000000;stroke-miterlimit:10;" cx="1265.9" cy="1105" rx="1.9" ry="2.1"/>
			<ellipse style="stroke:#000000;stroke-miterlimit:10;" cx="1216.7" cy="1103.3" rx="1.9" ry="2.1"/>
			<ellipse style="stroke:#000000;stroke-miterlimit:10;" cx="1319.3" cy="1106.8" rx="1.9" ry="2.1"/>
			<ellipse style="stroke:#000000;stroke-miterlimit:10;" cx="1371" cy="1106.8" rx="1.9" ry="2.1"/>
			<ellipse style="stroke:#000000;stroke-miterlimit:10;" cx="1421.1" cy="1105.9" rx="1.9" ry="2.1"/>
			<ellipse style="stroke:#000000;stroke-miterlimit:10;" cx="1473.7" cy="1105.9" rx="1.9" ry="2.1"/>
			<ellipse style="stroke:#000000;stroke-miterlimit:10;" cx="1528.4" cy="1107.1" rx="1.9" ry="2.1"/>
			<ellipse style="stroke:#000000;stroke-miterlimit:10;" cx="1564.4" cy="1107.2" rx="1.9" ry="2.1"/>
		</g>
		
			<ellipse style="fill:#B3B3B3;stroke:#000000;stroke-linecap:round;stroke-miterlimit:10;" cx="1387.2" cy="221.4" rx="10.2" ry="10.2"/>
	</g>
</g>
<g id="window">
	<ellipse style="fill:#B3C7E7;stroke:#000000;stroke-miterlimit:10;" cx="1393.8" cy="591.6" rx="72.1" ry="72.3"/>
</g>
<g id="spaceman">
	<path style="fill:#F2F2F2;stroke:#000000;stroke-miterlimit:10;" d="M1419.3,618.7L1419.3,618.7l0.1,24.1c0,13-10.5,23.5-23.4,23.5
		h-25.3c-15.7,0-28.5-12.7-28.7-28.5c-0.1-10.7-0.2-20.6-0.2-21.5c0-21.5,17.4-38.9,38.8-38.9c21.4,0,38.8,17.4,38.8,38.9
		C1419.3,617.2,1419.3,617.9,1419.3,618.7z"/>
	<path style="fill:#F2F2F2;stroke:#000000;stroke-miterlimit:10;" d="M1350.6,603.4"/>
	<rect x="1402.4" y="641.7" style="fill:#ED1C24;stroke:#000000;stroke-miterlimit:10;" width="9.3" height="3.4"/>
	<rect x="1402.4" y="646.8" style="fill:#0000FF;stroke:#000000;stroke-miterlimit:10;" width="9.3" height="3.4"/>
	<rect x="1402.4" y="651.9" style="fill:#00FF00;stroke:#000000;stroke-miterlimit:10;" width="9.3" height="3.4"/>
	<g>
		<ellipse style="fill:#999999;stroke:#000000;stroke-miterlimit:10;" cx="1380.7" cy="610.6" rx="28.4" ry="28.5"/>
		<ellipse style="fill:#333333;stroke:#000000;stroke-miterlimit:10;" cx="1380.7" cy="610.6" rx="25.9" ry="25.9"/>
		<ellipse style="fill:#0071BC;stroke:#000000;stroke-miterlimit:10;" cx="1380.7" cy="610.6" rx="23.3" ry="23.4"/>
	</g>
	<path style="fill:#0071BC;stroke:#000000;stroke-miterlimit:10;" d="M1386.2,597.5"/>
	<path style="fill:#29ABE2;" d="M1362.1,620.4c0-0.4-0.1-0.9-0.1-1.4c-0.3-11.8,7.7-22.5,19.2-24.8c4.6-0.9,9-0.6,13,0.7
		c-4.2-3.9-10.1-6-16.4-5.3c-9.3,1-16.9,8.4-18.2,17.6C1359,612,1360,616.5,1362.1,620.4z"/>
</g>
<g id="window-rim">
	<g>
		<g>
			<path style="fill:#4D4D4D;stroke:#000000;stroke-miterlimit:10;" d="M1393.8,509.1c-45.4,0-82.3,36.9-82.3,82.5
				c0,45.6,36.8,82.5,82.3,82.5s82.3-36.9,82.3-82.5C1476.1,546.1,1439.2,509.1,1393.8,509.1z M1394.6,663.9
				c-39.8,0-72.1-32.4-72.1-72.3s32.3-72.3,72.1-72.3c39.8,0,72.1,32.4,72.1,72.3S1434.4,663.9,1394.6,663.9z"/>
		</g>
		<ellipse style="stroke:#000000;stroke-miterlimit:10;" cx="1395.4" cy="513.9" rx="1.9" ry="2.1"/>
		<ellipse style="stroke:#000000;stroke-miterlimit:10;" cx="1335.8" cy="643.3" rx="1.9" ry="2.1"/>
		<ellipse style="stroke:#000000;stroke-miterlimit:10;" cx="1446" cy="647.6" rx="1.9" ry="2.1"/>
		<ellipse style="stroke:#000000;stroke-miterlimit:10;" cx="1316.2" cy="591.4" rx="1.9" ry="2.1"/>
		<ellipse style="stroke:#000000;stroke-miterlimit:10;" cx="1392.8" cy="669.6" rx="1.9" ry="2.1"/>
		<ellipse style="stroke:#000000;stroke-miterlimit:10;" cx="1470.9" cy="591.4" rx="1.9" ry="2.1"/>
		<ellipse style="stroke:#000000;stroke-miterlimit:10;" cx="1446.9" cy="536.1" rx="1.9" ry="2.1"/>
		<ellipse style="stroke:#000000;stroke-miterlimit:10;" cx="1339.1" cy="536.1" rx="1.9" ry="2.1"/>
	</g>
</g>
</svg>
